<mxfile host="app.diagrams.net" agent="Mozilla/5.0 (Windows NT 10.0; Win64; x64; rv:130.0) Gecko/20100101 Firefox/130.0" version="24.7.10">
  <diagram id="C5RBs43oDa-KdzZeNtuy" name="Page-1">
    <mxGraphModel dx="1687" dy="868" grid="1" gridSize="10" guides="1" tooltips="1" connect="1" arrows="1" fold="1" page="1" pageScale="1" pageWidth="827" pageHeight="1169" math="0" shadow="0">
      <root>
        <mxCell id="WIyWlLk6GJQsqaUBKTNV-0" />
        <mxCell id="WIyWlLk6GJQsqaUBKTNV-1" parent="WIyWlLk6GJQsqaUBKTNV-0" />
        <mxCell id="58bwXZOxhWhKczlbX85l-11" style="edgeStyle=orthogonalEdgeStyle;rounded=0;orthogonalLoop=1;jettySize=auto;html=1;exitX=0.5;exitY=1;exitDx=0;exitDy=0;" parent="WIyWlLk6GJQsqaUBKTNV-1" source="58bwXZOxhWhKczlbX85l-9" edge="1">
          <mxGeometry relative="1" as="geometry">
            <mxPoint x="140" y="160" as="targetPoint" />
          </mxGeometry>
        </mxCell>
        <mxCell id="58bwXZOxhWhKczlbX85l-9" value="" style="ellipse;whiteSpace=wrap;html=1;fillColor=#FF8080;" parent="WIyWlLk6GJQsqaUBKTNV-1" vertex="1">
          <mxGeometry x="80" y="40" width="120" height="80" as="geometry" />
        </mxCell>
        <mxCell id="58bwXZOxhWhKczlbX85l-10" value="MULA" style="text;strokeColor=none;align=center;fillColor=none;html=1;verticalAlign=middle;whiteSpace=wrap;rounded=0;fontSize=20;" parent="WIyWlLk6GJQsqaUBKTNV-1" vertex="1">
          <mxGeometry x="110" y="65" width="60" height="30" as="geometry" />
        </mxCell>
        <mxCell id="58bwXZOxhWhKczlbX85l-15" style="edgeStyle=orthogonalEdgeStyle;rounded=0;orthogonalLoop=1;jettySize=auto;html=1;exitX=0.5;exitY=1;exitDx=0;exitDy=0;" parent="WIyWlLk6GJQsqaUBKTNV-1" source="58bwXZOxhWhKczlbX85l-12" edge="1">
          <mxGeometry relative="1" as="geometry">
            <mxPoint x="140" y="260" as="targetPoint" />
          </mxGeometry>
        </mxCell>
        <mxCell id="58bwXZOxhWhKczlbX85l-12" value="" style="shape=parallelogram;perimeter=parallelogramPerimeter;whiteSpace=wrap;html=1;fixedSize=1;fillColor=#CCFFCC;" parent="WIyWlLk6GJQsqaUBKTNV-1" vertex="1">
          <mxGeometry x="80" y="160" width="120" height="60" as="geometry" />
        </mxCell>
        <mxCell id="58bwXZOxhWhKczlbX85l-13" value="INPUT nohp dan password" style="text;strokeColor=none;align=center;fillColor=none;html=1;verticalAlign=middle;whiteSpace=wrap;rounded=0;fontStyle=1" parent="WIyWlLk6GJQsqaUBKTNV-1" vertex="1">
          <mxGeometry x="110" y="175" width="60" height="30" as="geometry" />
        </mxCell>
        <mxCell id="58bwXZOxhWhKczlbX85l-18" style="edgeStyle=orthogonalEdgeStyle;rounded=0;orthogonalLoop=1;jettySize=auto;html=1;exitX=1;exitY=0.5;exitDx=0;exitDy=0;entryX=0;entryY=0.5;entryDx=0;entryDy=0;" parent="WIyWlLk6GJQsqaUBKTNV-1" source="58bwXZOxhWhKczlbX85l-16" target="58bwXZOxhWhKczlbX85l-19" edge="1">
          <mxGeometry relative="1" as="geometry">
            <mxPoint x="240" y="310" as="targetPoint" />
          </mxGeometry>
        </mxCell>
        <mxCell id="58bwXZOxhWhKczlbX85l-33" style="edgeStyle=orthogonalEdgeStyle;rounded=0;orthogonalLoop=1;jettySize=auto;html=1;exitX=0.5;exitY=1;exitDx=0;exitDy=0;entryX=0.5;entryY=0;entryDx=0;entryDy=0;" parent="WIyWlLk6GJQsqaUBKTNV-1" source="58bwXZOxhWhKczlbX85l-16" target="58bwXZOxhWhKczlbX85l-31" edge="1">
          <mxGeometry relative="1" as="geometry" />
        </mxCell>
        <mxCell id="58bwXZOxhWhKczlbX85l-16" value="" style="rhombus;whiteSpace=wrap;html=1;fillColor=#FFFF80;labelBackgroundColor=none;rounded=0;" parent="WIyWlLk6GJQsqaUBKTNV-1" vertex="1">
          <mxGeometry x="80" y="260" width="120" height="100" as="geometry" />
        </mxCell>
        <mxCell id="58bwXZOxhWhKczlbX85l-17" value="Akaun ditemui?" style="text;strokeColor=none;align=center;fillColor=none;html=1;verticalAlign=middle;whiteSpace=wrap;rounded=0;fontStyle=1" parent="WIyWlLk6GJQsqaUBKTNV-1" vertex="1">
          <mxGeometry x="110" y="295" width="60" height="30" as="geometry" />
        </mxCell>
        <mxCell id="58bwXZOxhWhKczlbX85l-24" style="edgeStyle=orthogonalEdgeStyle;rounded=0;orthogonalLoop=1;jettySize=auto;html=1;exitX=1;exitY=0.5;exitDx=0;exitDy=0;fontStyle=0" parent="WIyWlLk6GJQsqaUBKTNV-1" source="58bwXZOxhWhKczlbX85l-19" edge="1">
          <mxGeometry relative="1" as="geometry">
            <mxPoint x="140" y="140" as="targetPoint" />
            <Array as="points">
              <mxPoint x="370" y="310" />
              <mxPoint x="370" y="315" />
              <mxPoint x="480" y="315" />
              <mxPoint x="480" y="140" />
            </Array>
          </mxGeometry>
        </mxCell>
        <mxCell id="58bwXZOxhWhKczlbX85l-19" value="" style="shape=parallelogram;perimeter=parallelogramPerimeter;whiteSpace=wrap;html=1;fixedSize=1;fillColor=#CCFFCC;" parent="WIyWlLk6GJQsqaUBKTNV-1" vertex="1">
          <mxGeometry x="270" y="275" width="150" height="70" as="geometry" />
        </mxCell>
        <mxCell id="58bwXZOxhWhKczlbX85l-20" value="&lt;div&gt;Papar&lt;/div&gt;&lt;div&gt;&quot;Login Failed&quot;&lt;/div&gt;" style="text;strokeColor=none;align=center;fillColor=none;html=1;verticalAlign=middle;whiteSpace=wrap;rounded=0;fontStyle=1" parent="WIyWlLk6GJQsqaUBKTNV-1" vertex="1">
          <mxGeometry x="270" y="295" width="150" height="30" as="geometry" />
        </mxCell>
        <mxCell id="58bwXZOxhWhKczlbX85l-25" value="PALSU" style="text;strokeColor=none;align=center;fillColor=none;html=1;verticalAlign=middle;whiteSpace=wrap;rounded=0;fontStyle=1;fontSize=18;" parent="WIyWlLk6GJQsqaUBKTNV-1" vertex="1">
          <mxGeometry x="210" y="280" width="60" height="30" as="geometry" />
        </mxCell>
        <mxCell id="58bwXZOxhWhKczlbX85l-45" style="edgeStyle=orthogonalEdgeStyle;rounded=0;orthogonalLoop=1;jettySize=auto;html=1;exitX=0.5;exitY=1;exitDx=0;exitDy=0;" parent="WIyWlLk6GJQsqaUBKTNV-1" source="58bwXZOxhWhKczlbX85l-31" target="58bwXZOxhWhKczlbX85l-35" edge="1">
          <mxGeometry relative="1" as="geometry" />
        </mxCell>
        <mxCell id="58bwXZOxhWhKczlbX85l-31" value="" style="shape=parallelogram;perimeter=parallelogramPerimeter;whiteSpace=wrap;html=1;fixedSize=1;fillColor=#CCFFCC;" parent="WIyWlLk6GJQsqaUBKTNV-1" vertex="1">
          <mxGeometry x="65" y="400" width="150" height="70" as="geometry" />
        </mxCell>
        <mxCell id="58bwXZOxhWhKczlbX85l-32" value="&lt;div&gt;Papar&amp;nbsp;&lt;/div&gt;&lt;div&gt;&quot;Login Succesful&quot;&lt;/div&gt;" style="text;strokeColor=none;align=center;fillColor=none;html=1;verticalAlign=middle;whiteSpace=wrap;rounded=0;fontStyle=1" parent="WIyWlLk6GJQsqaUBKTNV-1" vertex="1">
          <mxGeometry x="60" y="420" width="160" height="30" as="geometry" />
        </mxCell>
        <mxCell id="58bwXZOxhWhKczlbX85l-46" style="edgeStyle=orthogonalEdgeStyle;rounded=0;orthogonalLoop=1;jettySize=auto;html=1;exitX=0.5;exitY=1;exitDx=0;exitDy=0;entryX=0.5;entryY=0;entryDx=0;entryDy=0;" parent="WIyWlLk6GJQsqaUBKTNV-1" source="58bwXZOxhWhKczlbX85l-35" target="58bwXZOxhWhKczlbX85l-36" edge="1">
          <mxGeometry relative="1" as="geometry" />
        </mxCell>
        <mxCell id="SASHohoA3gIsBAI7t1p1-1" style="edgeStyle=orthogonalEdgeStyle;rounded=0;orthogonalLoop=1;jettySize=auto;html=1;exitX=1;exitY=0.5;exitDx=0;exitDy=0;entryX=0;entryY=0.5;entryDx=0;entryDy=0;" edge="1" parent="WIyWlLk6GJQsqaUBKTNV-1" source="58bwXZOxhWhKczlbX85l-35" target="58bwXZOxhWhKczlbX85l-59">
          <mxGeometry relative="1" as="geometry" />
        </mxCell>
        <mxCell id="58bwXZOxhWhKczlbX85l-35" value="" style="rhombus;whiteSpace=wrap;html=1;fillColor=#FFFF80;" parent="WIyWlLk6GJQsqaUBKTNV-1" vertex="1">
          <mxGeometry x="80" y="510" width="120" height="100" as="geometry" />
        </mxCell>
        <mxCell id="58bwXZOxhWhKczlbX85l-47" style="edgeStyle=orthogonalEdgeStyle;rounded=0;orthogonalLoop=1;jettySize=auto;html=1;exitX=0.5;exitY=1;exitDx=0;exitDy=0;entryX=0.5;entryY=0;entryDx=0;entryDy=0;" parent="WIyWlLk6GJQsqaUBKTNV-1" source="58bwXZOxhWhKczlbX85l-36" target="58bwXZOxhWhKczlbX85l-37" edge="1">
          <mxGeometry relative="1" as="geometry" />
        </mxCell>
        <mxCell id="SASHohoA3gIsBAI7t1p1-4" style="edgeStyle=orthogonalEdgeStyle;rounded=0;orthogonalLoop=1;jettySize=auto;html=1;exitX=1;exitY=0.5;exitDx=0;exitDy=0;" edge="1" parent="WIyWlLk6GJQsqaUBKTNV-1" source="58bwXZOxhWhKczlbX85l-36" target="58bwXZOxhWhKczlbX85l-63">
          <mxGeometry relative="1" as="geometry" />
        </mxCell>
        <mxCell id="58bwXZOxhWhKczlbX85l-36" value="" style="rhombus;whiteSpace=wrap;html=1;fillColor=#FFFF80;" parent="WIyWlLk6GJQsqaUBKTNV-1" vertex="1">
          <mxGeometry x="80" y="650" width="120" height="100" as="geometry" />
        </mxCell>
        <mxCell id="58bwXZOxhWhKczlbX85l-48" style="edgeStyle=orthogonalEdgeStyle;rounded=0;orthogonalLoop=1;jettySize=auto;html=1;exitX=0.5;exitY=1;exitDx=0;exitDy=0;entryX=0.5;entryY=0;entryDx=0;entryDy=0;" parent="WIyWlLk6GJQsqaUBKTNV-1" source="58bwXZOxhWhKczlbX85l-37" target="58bwXZOxhWhKczlbX85l-43" edge="1">
          <mxGeometry relative="1" as="geometry" />
        </mxCell>
        <mxCell id="SASHohoA3gIsBAI7t1p1-5" style="edgeStyle=orthogonalEdgeStyle;rounded=0;orthogonalLoop=1;jettySize=auto;html=1;exitX=1;exitY=0.5;exitDx=0;exitDy=0;" edge="1" parent="WIyWlLk6GJQsqaUBKTNV-1" source="58bwXZOxhWhKczlbX85l-37" target="58bwXZOxhWhKczlbX85l-65">
          <mxGeometry relative="1" as="geometry" />
        </mxCell>
        <mxCell id="58bwXZOxhWhKczlbX85l-37" value="" style="rhombus;whiteSpace=wrap;html=1;fillColor=#FFFF80;" parent="WIyWlLk6GJQsqaUBKTNV-1" vertex="1">
          <mxGeometry x="80" y="790" width="120" height="100" as="geometry" />
        </mxCell>
        <mxCell id="58bwXZOxhWhKczlbX85l-38" value="" style="ellipse;whiteSpace=wrap;html=1;fillColor=#FF8080;labelBorderColor=#FF0000;" parent="WIyWlLk6GJQsqaUBKTNV-1" vertex="1">
          <mxGeometry x="80" y="1351" width="120" height="80" as="geometry" />
        </mxCell>
        <mxCell id="58bwXZOxhWhKczlbX85l-39" value="&lt;div&gt;Menu&lt;/div&gt;&lt;div&gt;&quot;Home&quot;&lt;br&gt;&lt;/div&gt;" style="text;strokeColor=none;align=center;fillColor=none;html=1;verticalAlign=middle;whiteSpace=wrap;rounded=0;fontStyle=1" parent="WIyWlLk6GJQsqaUBKTNV-1" vertex="1">
          <mxGeometry x="110" y="545" width="60" height="30" as="geometry" />
        </mxCell>
        <mxCell id="58bwXZOxhWhKczlbX85l-40" value="&lt;div&gt;Menu&lt;/div&gt;&lt;div&gt;&quot;History&quot;&lt;/div&gt;" style="text;strokeColor=none;align=center;fillColor=none;html=1;verticalAlign=middle;whiteSpace=wrap;rounded=0;fontStyle=1" parent="WIyWlLk6GJQsqaUBKTNV-1" vertex="1">
          <mxGeometry x="70" y="685" width="140" height="30" as="geometry" />
        </mxCell>
        <mxCell id="58bwXZOxhWhKczlbX85l-41" value="&lt;div&gt;Menu &lt;br&gt;&lt;/div&gt;&lt;div&gt;&quot;Profile&quot;&lt;br&gt;&lt;/div&gt;" style="text;strokeColor=none;align=center;fillColor=none;html=1;verticalAlign=middle;whiteSpace=wrap;rounded=0;fontStyle=1" parent="WIyWlLk6GJQsqaUBKTNV-1" vertex="1">
          <mxGeometry x="110" y="825" width="60" height="30" as="geometry" />
        </mxCell>
        <mxCell id="58bwXZOxhWhKczlbX85l-49" style="edgeStyle=orthogonalEdgeStyle;rounded=0;orthogonalLoop=1;jettySize=auto;html=1;exitX=0.5;exitY=1;exitDx=0;exitDy=0;" parent="WIyWlLk6GJQsqaUBKTNV-1" source="58bwXZOxhWhKczlbX85l-43" edge="1">
          <mxGeometry relative="1" as="geometry">
            <mxPoint x="140" y="1070" as="targetPoint" />
          </mxGeometry>
        </mxCell>
        <mxCell id="SASHohoA3gIsBAI7t1p1-7" style="edgeStyle=orthogonalEdgeStyle;rounded=0;orthogonalLoop=1;jettySize=auto;html=1;exitX=1;exitY=0.5;exitDx=0;exitDy=0;entryX=0;entryY=0.5;entryDx=0;entryDy=0;" edge="1" parent="WIyWlLk6GJQsqaUBKTNV-1" source="58bwXZOxhWhKczlbX85l-43" target="58bwXZOxhWhKczlbX85l-67">
          <mxGeometry relative="1" as="geometry">
            <mxPoint x="260" y="979.9655172413793" as="targetPoint" />
          </mxGeometry>
        </mxCell>
        <mxCell id="58bwXZOxhWhKczlbX85l-43" value="" style="rhombus;whiteSpace=wrap;html=1;fillColor=#FFFF80;" parent="WIyWlLk6GJQsqaUBKTNV-1" vertex="1">
          <mxGeometry x="80" y="930" width="120" height="100" as="geometry" />
        </mxCell>
        <mxCell id="58bwXZOxhWhKczlbX85l-42" value="&lt;div&gt;Menu &lt;br&gt;&lt;/div&gt;&lt;div&gt;&quot;Settings&quot;&lt;br&gt;&lt;/div&gt;" style="text;strokeColor=none;align=center;fillColor=none;html=1;verticalAlign=middle;whiteSpace=wrap;rounded=0;fontStyle=1" parent="WIyWlLk6GJQsqaUBKTNV-1" vertex="1">
          <mxGeometry x="110" y="965" width="60" height="30" as="geometry" />
        </mxCell>
        <mxCell id="58bwXZOxhWhKczlbX85l-44" value="TAMAT" style="text;strokeColor=none;align=center;fillColor=none;html=1;verticalAlign=middle;whiteSpace=wrap;rounded=0;fontStyle=1;fontSize=20;" parent="WIyWlLk6GJQsqaUBKTNV-1" vertex="1">
          <mxGeometry x="110" y="1376" width="60" height="30" as="geometry" />
        </mxCell>
        <mxCell id="SASHohoA3gIsBAI7t1p1-27" style="edgeStyle=orthogonalEdgeStyle;rounded=0;orthogonalLoop=1;jettySize=auto;html=1;exitX=1;exitY=0.5;exitDx=0;exitDy=0;" edge="1" parent="WIyWlLk6GJQsqaUBKTNV-1" source="58bwXZOxhWhKczlbX85l-59">
          <mxGeometry relative="1" as="geometry">
            <mxPoint x="520" y="560.2857142857143" as="targetPoint" />
          </mxGeometry>
        </mxCell>
        <mxCell id="58bwXZOxhWhKczlbX85l-59" value="" style="shape=parallelogram;perimeter=parallelogramPerimeter;whiteSpace=wrap;html=1;fixedSize=1;fillColor=#CCFFCC;" parent="WIyWlLk6GJQsqaUBKTNV-1" vertex="1">
          <mxGeometry x="270" y="525" width="150" height="70" as="geometry" />
        </mxCell>
        <mxCell id="58bwXZOxhWhKczlbX85l-60" value="&lt;div&gt;Papar senarai menu makanan yang tersedia.&lt;/div&gt;" style="text;strokeColor=none;align=center;fillColor=none;html=1;verticalAlign=middle;whiteSpace=wrap;rounded=0;fontStyle=1" parent="WIyWlLk6GJQsqaUBKTNV-1" vertex="1">
          <mxGeometry x="285" y="550" width="120" height="30" as="geometry" />
        </mxCell>
        <mxCell id="SASHohoA3gIsBAI7t1p1-28" style="edgeStyle=orthogonalEdgeStyle;rounded=0;orthogonalLoop=1;jettySize=auto;html=1;exitX=1;exitY=0.5;exitDx=0;exitDy=0;" edge="1" parent="WIyWlLk6GJQsqaUBKTNV-1" source="58bwXZOxhWhKczlbX85l-63">
          <mxGeometry relative="1" as="geometry">
            <mxPoint x="520" y="700.2857142857142" as="targetPoint" />
          </mxGeometry>
        </mxCell>
        <mxCell id="58bwXZOxhWhKczlbX85l-63" value="" style="shape=parallelogram;perimeter=parallelogramPerimeter;whiteSpace=wrap;html=1;fixedSize=1;fillColor=#CCFFCC;" parent="WIyWlLk6GJQsqaUBKTNV-1" vertex="1">
          <mxGeometry x="265" y="665" width="150" height="70" as="geometry" />
        </mxCell>
        <mxCell id="58bwXZOxhWhKczlbX85l-64" value="&lt;div&gt;Papar semua transaksi yang telah dilakukan oleh pengguna.&lt;/div&gt;" style="text;strokeColor=none;align=center;fillColor=none;html=1;verticalAlign=middle;whiteSpace=wrap;rounded=0;fontStyle=1" parent="WIyWlLk6GJQsqaUBKTNV-1" vertex="1">
          <mxGeometry x="280" y="685" width="120" height="30" as="geometry" />
        </mxCell>
        <mxCell id="SASHohoA3gIsBAI7t1p1-29" style="edgeStyle=orthogonalEdgeStyle;rounded=0;orthogonalLoop=1;jettySize=auto;html=1;exitX=1;exitY=0.5;exitDx=0;exitDy=0;" edge="1" parent="WIyWlLk6GJQsqaUBKTNV-1" source="58bwXZOxhWhKczlbX85l-65">
          <mxGeometry relative="1" as="geometry">
            <mxPoint x="520" y="840.2857142857142" as="targetPoint" />
          </mxGeometry>
        </mxCell>
        <mxCell id="58bwXZOxhWhKczlbX85l-65" value="" style="shape=parallelogram;perimeter=parallelogramPerimeter;whiteSpace=wrap;html=1;fixedSize=1;fillColor=#CCFFCC;" parent="WIyWlLk6GJQsqaUBKTNV-1" vertex="1">
          <mxGeometry x="265" y="805" width="150" height="70" as="geometry" />
        </mxCell>
        <mxCell id="58bwXZOxhWhKczlbX85l-66" value="Papar maklumat pengguna seperti nombor telefon dan kata laluan." style="text;strokeColor=none;align=center;fillColor=none;html=1;verticalAlign=middle;whiteSpace=wrap;rounded=0;fontStyle=1" parent="WIyWlLk6GJQsqaUBKTNV-1" vertex="1">
          <mxGeometry x="285" y="825" width="110" height="30" as="geometry" />
        </mxCell>
        <mxCell id="58bwXZOxhWhKczlbX85l-67" value="" style="shape=parallelogram;perimeter=parallelogramPerimeter;whiteSpace=wrap;html=1;fixedSize=1;fillColor=#CCFFCC;" parent="WIyWlLk6GJQsqaUBKTNV-1" vertex="1">
          <mxGeometry x="265" y="945" width="150" height="70" as="geometry" />
        </mxCell>
        <mxCell id="SASHohoA3gIsBAI7t1p1-30" style="edgeStyle=orthogonalEdgeStyle;rounded=0;orthogonalLoop=1;jettySize=auto;html=1;exitX=1;exitY=0.5;exitDx=0;exitDy=0;" edge="1" parent="WIyWlLk6GJQsqaUBKTNV-1" source="58bwXZOxhWhKczlbX85l-68">
          <mxGeometry relative="1" as="geometry">
            <mxPoint x="520" y="980.2857142857142" as="targetPoint" />
          </mxGeometry>
        </mxCell>
        <mxCell id="58bwXZOxhWhKczlbX85l-68" value="&lt;div&gt;Papar pilihan untuk mengubah tetapan akaun atau aplikasi.&lt;/div&gt;" style="text;strokeColor=none;align=center;fillColor=none;html=1;verticalAlign=middle;whiteSpace=wrap;rounded=0;fontStyle=1" parent="WIyWlLk6GJQsqaUBKTNV-1" vertex="1">
          <mxGeometry x="270" y="965" width="140" height="30" as="geometry" />
        </mxCell>
        <mxCell id="SASHohoA3gIsBAI7t1p1-8" value="PALSU" style="text;strokeColor=none;align=center;fillColor=none;html=1;verticalAlign=middle;whiteSpace=wrap;rounded=0;fontStyle=1;fontSize=18;" vertex="1" parent="WIyWlLk6GJQsqaUBKTNV-1">
          <mxGeometry x="155" y="610" width="60" height="30" as="geometry" />
        </mxCell>
        <mxCell id="SASHohoA3gIsBAI7t1p1-10" value="BENAR" style="text;strokeColor=none;align=center;fillColor=none;html=1;verticalAlign=middle;whiteSpace=wrap;rounded=0;fontStyle=1;fontSize=18;" vertex="1" parent="WIyWlLk6GJQsqaUBKTNV-1">
          <mxGeometry x="210" y="530" width="60" height="30" as="geometry" />
        </mxCell>
        <mxCell id="SASHohoA3gIsBAI7t1p1-12" value="BENAR" style="text;strokeColor=none;align=center;fillColor=none;html=1;verticalAlign=middle;whiteSpace=wrap;rounded=0;fontStyle=1;fontSize=18;" vertex="1" parent="WIyWlLk6GJQsqaUBKTNV-1">
          <mxGeometry x="210" y="670" width="60" height="30" as="geometry" />
        </mxCell>
        <mxCell id="SASHohoA3gIsBAI7t1p1-13" value="PALSU" style="text;strokeColor=none;align=center;fillColor=none;html=1;verticalAlign=middle;whiteSpace=wrap;rounded=0;fontStyle=1;fontSize=18;" vertex="1" parent="WIyWlLk6GJQsqaUBKTNV-1">
          <mxGeometry x="155" y="750" width="60" height="30" as="geometry" />
        </mxCell>
        <mxCell id="SASHohoA3gIsBAI7t1p1-14" value="BENAR" style="text;strokeColor=none;align=center;fillColor=none;html=1;verticalAlign=middle;whiteSpace=wrap;rounded=0;fontStyle=1;fontSize=18;" vertex="1" parent="WIyWlLk6GJQsqaUBKTNV-1">
          <mxGeometry x="210" y="810" width="60" height="30" as="geometry" />
        </mxCell>
        <mxCell id="SASHohoA3gIsBAI7t1p1-15" value="BENAR" style="text;strokeColor=none;align=center;fillColor=none;html=1;verticalAlign=middle;whiteSpace=wrap;rounded=0;fontStyle=1;fontSize=18;" vertex="1" parent="WIyWlLk6GJQsqaUBKTNV-1">
          <mxGeometry x="210" y="950" width="60" height="30" as="geometry" />
        </mxCell>
        <mxCell id="SASHohoA3gIsBAI7t1p1-16" value="PALSU" style="text;strokeColor=none;align=center;fillColor=none;html=1;verticalAlign=middle;whiteSpace=wrap;rounded=0;fontStyle=1;fontSize=18;" vertex="1" parent="WIyWlLk6GJQsqaUBKTNV-1">
          <mxGeometry x="155" y="1030" width="60" height="30" as="geometry" />
        </mxCell>
        <mxCell id="SASHohoA3gIsBAI7t1p1-17" value="PALSU" style="text;strokeColor=none;align=center;fillColor=none;html=1;verticalAlign=middle;whiteSpace=wrap;rounded=0;fontStyle=1;fontSize=18;" vertex="1" parent="WIyWlLk6GJQsqaUBKTNV-1">
          <mxGeometry x="155" y="890" width="60" height="30" as="geometry" />
        </mxCell>
        <mxCell id="SASHohoA3gIsBAI7t1p1-18" value="BENAR" style="text;strokeColor=none;align=center;fillColor=none;html=1;verticalAlign=middle;whiteSpace=wrap;rounded=0;fontStyle=1;fontSize=18;" vertex="1" parent="WIyWlLk6GJQsqaUBKTNV-1">
          <mxGeometry x="155" y="360" width="60" height="30" as="geometry" />
        </mxCell>
        <mxCell id="SASHohoA3gIsBAI7t1p1-23" style="edgeStyle=orthogonalEdgeStyle;rounded=0;orthogonalLoop=1;jettySize=auto;html=1;exitX=0.5;exitY=1;exitDx=0;exitDy=0;entryX=0.5;entryY=0;entryDx=0;entryDy=0;" edge="1" parent="WIyWlLk6GJQsqaUBKTNV-1" source="SASHohoA3gIsBAI7t1p1-21" target="58bwXZOxhWhKczlbX85l-38">
          <mxGeometry relative="1" as="geometry" />
        </mxCell>
        <mxCell id="SASHohoA3gIsBAI7t1p1-26" style="edgeStyle=orthogonalEdgeStyle;rounded=0;orthogonalLoop=1;jettySize=auto;html=1;exitX=1;exitY=0.5;exitDx=0;exitDy=0;entryX=1;entryY=0.5;entryDx=0;entryDy=0;" edge="1" parent="WIyWlLk6GJQsqaUBKTNV-1" source="SASHohoA3gIsBAI7t1p1-21" target="58bwXZOxhWhKczlbX85l-31">
          <mxGeometry relative="1" as="geometry">
            <mxPoint x="260" y="440" as="targetPoint" />
            <Array as="points">
              <mxPoint x="520" y="1260" />
              <mxPoint x="520" y="440" />
              <mxPoint x="205" y="440" />
            </Array>
          </mxGeometry>
        </mxCell>
        <mxCell id="SASHohoA3gIsBAI7t1p1-21" value="" style="rhombus;whiteSpace=wrap;html=1;fillColor=#FFFF80;" vertex="1" parent="WIyWlLk6GJQsqaUBKTNV-1">
          <mxGeometry x="80" y="1210" width="120" height="100" as="geometry" />
        </mxCell>
        <mxCell id="SASHohoA3gIsBAI7t1p1-22" value="&lt;div&gt;Menu &lt;br&gt;&lt;/div&gt;&lt;div&gt;&quot;Logout&quot;&lt;br&gt;&lt;/div&gt;" style="text;strokeColor=none;align=center;fillColor=none;html=1;verticalAlign=middle;whiteSpace=wrap;rounded=0;fontStyle=1" vertex="1" parent="WIyWlLk6GJQsqaUBKTNV-1">
          <mxGeometry x="100" y="1245" width="80" height="30" as="geometry" />
        </mxCell>
        <mxCell id="SASHohoA3gIsBAI7t1p1-24" value="BENAR" style="text;strokeColor=none;align=center;fillColor=none;html=1;verticalAlign=middle;whiteSpace=wrap;rounded=0;fontStyle=1;fontSize=18;" vertex="1" parent="WIyWlLk6GJQsqaUBKTNV-1">
          <mxGeometry x="155" y="1310" width="60" height="30" as="geometry" />
        </mxCell>
        <mxCell id="SASHohoA3gIsBAI7t1p1-25" value="PALSU" style="text;strokeColor=none;align=center;fillColor=none;html=1;verticalAlign=middle;whiteSpace=wrap;rounded=0;fontStyle=1;fontSize=18;" vertex="1" parent="WIyWlLk6GJQsqaUBKTNV-1">
          <mxGeometry x="210" y="1230" width="60" height="30" as="geometry" />
        </mxCell>
        <mxCell id="SASHohoA3gIsBAI7t1p1-33" style="edgeStyle=orthogonalEdgeStyle;rounded=0;orthogonalLoop=1;jettySize=auto;html=1;exitX=0.5;exitY=1;exitDx=0;exitDy=0;" edge="1" parent="WIyWlLk6GJQsqaUBKTNV-1" source="SASHohoA3gIsBAI7t1p1-31" target="SASHohoA3gIsBAI7t1p1-21">
          <mxGeometry relative="1" as="geometry" />
        </mxCell>
        <mxCell id="SASHohoA3gIsBAI7t1p1-36" style="edgeStyle=orthogonalEdgeStyle;rounded=0;orthogonalLoop=1;jettySize=auto;html=1;exitX=1;exitY=0.5;exitDx=0;exitDy=0;entryX=0;entryY=0.5;entryDx=0;entryDy=0;" edge="1" parent="WIyWlLk6GJQsqaUBKTNV-1" source="SASHohoA3gIsBAI7t1p1-31" target="SASHohoA3gIsBAI7t1p1-34">
          <mxGeometry relative="1" as="geometry">
            <mxPoint x="240" y="1119.0588235294117" as="targetPoint" />
          </mxGeometry>
        </mxCell>
        <mxCell id="SASHohoA3gIsBAI7t1p1-31" value="" style="rhombus;whiteSpace=wrap;html=1;fillColor=#FFFF80;" vertex="1" parent="WIyWlLk6GJQsqaUBKTNV-1">
          <mxGeometry x="80" y="1069" width="120" height="100" as="geometry" />
        </mxCell>
        <mxCell id="SASHohoA3gIsBAI7t1p1-32" value="&lt;div&gt;Logo&lt;/div&gt;&lt;div&gt;&quot;Shopping cart&quot;&lt;/div&gt;" style="text;strokeColor=none;align=center;fillColor=none;html=1;verticalAlign=middle;whiteSpace=wrap;rounded=0;fontStyle=1" vertex="1" parent="WIyWlLk6GJQsqaUBKTNV-1">
          <mxGeometry x="90" y="1104" width="100" height="30" as="geometry" />
        </mxCell>
        <mxCell id="SASHohoA3gIsBAI7t1p1-37" style="edgeStyle=orthogonalEdgeStyle;rounded=0;orthogonalLoop=1;jettySize=auto;html=1;exitX=1;exitY=0.5;exitDx=0;exitDy=0;" edge="1" parent="WIyWlLk6GJQsqaUBKTNV-1" source="SASHohoA3gIsBAI7t1p1-34">
          <mxGeometry relative="1" as="geometry">
            <mxPoint x="520" y="1119.0588235294117" as="targetPoint" />
          </mxGeometry>
        </mxCell>
        <mxCell id="SASHohoA3gIsBAI7t1p1-34" value="" style="shape=parallelogram;perimeter=parallelogramPerimeter;whiteSpace=wrap;html=1;fixedSize=1;fillColor=#CCFFCC;" vertex="1" parent="WIyWlLk6GJQsqaUBKTNV-1">
          <mxGeometry x="260" y="1080" width="160" height="80" as="geometry" />
        </mxCell>
        <mxCell id="SASHohoA3gIsBAI7t1p1-35" value="&lt;div&gt;Papar barang-barang termasuk nama, kuantiti, harga, dan jumlah keseluruhan kos.&lt;/div&gt;" style="text;strokeColor=none;align=center;fillColor=none;html=1;verticalAlign=middle;whiteSpace=wrap;rounded=0;fontStyle=1" vertex="1" parent="WIyWlLk6GJQsqaUBKTNV-1">
          <mxGeometry x="270" y="1105" width="140" height="30" as="geometry" />
        </mxCell>
        <mxCell id="SASHohoA3gIsBAI7t1p1-38" value="BENAR" style="text;strokeColor=none;align=center;fillColor=none;html=1;verticalAlign=middle;whiteSpace=wrap;rounded=0;fontStyle=1;fontSize=18;" vertex="1" parent="WIyWlLk6GJQsqaUBKTNV-1">
          <mxGeometry x="210" y="1090" width="60" height="30" as="geometry" />
        </mxCell>
      </root>
    </mxGraphModel>
  </diagram>
</mxfile>
